ffmpeg started on 2025-12-30 at 15:54:51
Report written to "D:\Convert\FFMetrics\reports\ssim_report-6.txt"
Log level: 32
Command line:
ffmpeg -hide_banner -nostdin -i "F:\\\xc0\xed\xe8\xec\xe5\\\xce\xed\xe3\xee\xe8\xed\xe3\xe8\\!_37_\xc7\xe8\xec\xe0_2025\\JamClub\\\xc4\xee\xea\xf2\xee\xf0 \xd1\xf2\xee\xf3\xed\\\xd2\xc2-4\\JamClub_Dr_Stone_Science_Future_03_1080p_HEVC(36).mkv" -i "F:\\\xc0\xed\xe8\xec\xe5\\\xce\xed\xe3\xee\xe8\xed\xe3\xe8\\!_37_\xc7\xe8\xec\xe0_2025\\JamClub\\\xc4\xee\xea\xf2\xee\xf0 \xd1\xf2\xee\xf3\xed\\\xd2\xc2-4\\JamClub_Dr_Stone_Science_Future_03_1080p.mp4" -lavfi "[0:v]settb=AVTB,setpts=PTS-STARTPTS,format=pix_fmts=yuv420p10le,fps=24000/1001,scale=1920:1080:flags=bicubic,colorspace=format=yuv420p10:range=tv:primaries=bt709:trc=bt709:space=bt709:fast=0[main];[1:v]settb=AVTB,setpts=PTS-STARTPTS,format=pix_fmts=yuv420p,fps=24000/1001,scale=1920:1080:flags=bicubic,colorspace=format=yuv420p:irange=tv:iprimaries=bt709:itrc=bt709:ispace=bt709:range=tv:primaries=bt709:trc=bt709:space=bt709:fast=0[ref];[main][ref]ssim=eof_action=endall:stats_file='D\\:/Convert/FFMetrics/logs/ssim_logfile-6.txt'" -f null -
Input #0, matroska,webm, from 'F:\Аниме\Онгоинги\!_37_Зима_2025\JamClub\Доктор Стоун\ТВ-4\JamClub_Dr_Stone_Science_Future_03_1080p_HEVC(36).mkv':
  Metadata:
    COMPATIBLE_BRANDS: mp42mp41
    MAJOR_BRAND     : mp42
    MINOR_VERSION   : 0
    ENCODER         : Lavf61.7.100
  Duration: 00:24:22.17, start: -0.021000, bitrate: 1806 kb/s
  Stream #0:0(eng): Video: hevc (Main 10), yuv420p10le(tv, bt709, progressive), 1920x1080 [SAR 1:1 DAR 16:9], 23.98 fps, 23.98 tbr, 1k tbn (default)
      Metadata:
        HANDLER_NAME    : Mainconcept Video Media Handler
        VENDOR_ID       : [0][0][0][0]
        ENCODER         : Lavc61.19.100 libx265
        BPS             : 1609131
        DURATION        : 00:24:22.127708333
        NUMBER_OF_FRAMES: 35056
        NUMBER_OF_BYTES : 294094355
        _STATISTICS_WRITING_APP: mkvpropedit v94.0 ('Initiate') 64-bit
        _STATISTICS_WRITING_DATE_UTC: 2025-12-30 11:59:27
        _STATISTICS_TAGS: BPS DURATION NUMBER_OF_FRAMES NUMBER_OF_BYTES
  Stream #0:1(eng): Audio: aac (LC), 48000 Hz, stereo, fltp (default)
      Metadata:
        HANDLER_NAME    : #Mainconcept MP4 Sound Media Handler
        VENDOR_ID       : [0][0][0][0]
        ENCODER         : Lavc61.19.100 aac
        BPS             : 193637
        DURATION        : 00:24:22.144000000
        NUMBER_OF_FRAMES: 68539
        NUMBER_OF_BYTES : 35390813
        _STATISTICS_WRITING_APP: mkvpropedit v94.0 ('Initiate') 64-bit
        _STATISTICS_WRITING_DATE_UTC: 2025-12-30 11:59:27
        _STATISTICS_TAGS: BPS DURATION NUMBER_OF_FRAMES NUMBER_OF_BYTES
Input #1, mov,mp4,m4a,3gp,3g2,mj2, from 'F:\Аниме\Онгоинги\!_37_Зима_2025\JamClub\Доктор Стоун\ТВ-4\JamClub_Dr_Stone_Science_Future_03_1080p.mp4':
  Metadata:
    major_brand     : mp42
    minor_version   : 0
    compatible_brands: mp42mp41
    creation_time   : 2025-02-16T13:45:21.000000Z
  Duration: 00:24:22.13, start: 0.000000, bitrate: 5181 kb/s
  Stream #1:0[0x1](eng): Video: h264 (Main) (avc1 / 0x31637661), yuv420p(progressive), 1920x1080 [SAR 1:1 DAR 16:9], 4861 kb/s, 23.98 fps, 23.98 tbr, 24k tbn (default)
      Metadata:
        creation_time   : 2025-02-16T13:45:21.000000Z
        handler_name    : Mainconcept Video Media Handler
        vendor_id       : [0][0][0][0]
        encoder         : AVC Coding
  Stream #1:1[0x2](eng): Audio: aac (LC) (mp4a / 0x6134706D), 48000 Hz, stereo, fltp, 317 kb/s (default)
      Metadata:
        creation_time   : 2025-02-16T13:45:21.000000Z
        handler_name    : #Mainconcept MP4 Sound Media Handler
        vendor_id       : [0][0][0][0]
Stream mapping:
  Stream #0:0 (hevc) -> settb:default
  Stream #1:0 (h264) -> settb:default
  ssim:default -> Stream #0:0 (wrapped_avframe)
  Stream #0:1 -> #0:1 (aac (native) -> pcm_s16le (native))
Output #0, null, to 'pipe:':
  Metadata:
    COMPATIBLE_BRANDS: mp42mp41
    MAJOR_BRAND     : mp42
    MINOR_VERSION   : 0
    encoder         : Lavf61.7.100
  Stream #0:0: Video: wrapped_avframe, yuv420p10le(tv, bt709, progressive), 1920x1080 [SAR 1:1 DAR 16:9], q=2-31, 200 kb/s, 23.98 fps, 23.98 tbn
      Metadata:
        encoder         : Lavc61.19.100 wrapped_avframe
  Stream #0:1(eng): Audio: pcm_s16le, 48000 Hz, stereo, s16, 1536 kb/s (default)
      Metadata:
        HANDLER_NAME    : #Mainconcept MP4 Sound Media Handler
        VENDOR_ID       : [0][0][0][0]
        _STATISTICS_TAGS: BPS DURATION NUMBER_OF_FRAMES NUMBER_OF_BYTES
        BPS             : 193637
        DURATION        : 00:24:22.144000000
        NUMBER_OF_FRAMES: 68539
        NUMBER_OF_BYTES : 35390813
        _STATISTICS_WRITING_APP: mkvpropedit v94.0 ('Initiate') 64-bit
        _STATISTICS_WRITING_DATE_UTC: 2025-12-30 11:59:27
        encoder         : Lavc61.19.100 pcm_s16le
frame=  123 fps=0.0 q=-0.0 size=N/A time=00:00:05.13 bitrate=N/A speed=9.87x    frame=  292 fps=284 q=-0.0 size=N/A time=00:00:12.17 bitrate=N/A speed=11.8x    frame=  485 fps=313 q=-0.0 size=N/A time=00:00:20.22 bitrate=N/A speed=13.1x    frame=  719 fps=349 q=-0.0 size=N/A time=00:00:29.98 bitrate=N/A speed=14.5x    frame=  941 fps=366 q=-0.0 size=N/A time=00:00:39.24 bitrate=N/A speed=15.3x    frame= 1178 fps=380 q=-0.0 size=N/A time=00:00:49.13 bitrate=N/A speed=15.9x    frame= 1396 fps=387 q=-0.0 size=N/A time=00:00:58.22 bitrate=N/A speed=16.1x    frame= 1618 fps=393 q=-0.0 size=N/A time=00:01:07.48 bitrate=N/A speed=16.4x    frame= 1850 fps=398 q=-0.0 size=N/A time=00:01:17.16 bitrate=N/A speed=16.6x    frame= 2084 fps=404 q=-0.0 size=N/A time=00:01:26.92 bitrate=N/A speed=16.9x    frame= 2312 fps=407 q=-0.0 size=N/A time=00:01:36.42 bitrate=N/A speed=  17x    frame= 2538 fps=410 q=-0.0 size=N/A time=00:01:45.85 bitrate=N/A speed=17.1x    frame= 2765 fps=413 q=-0.0 size=N/A time=00:01:55.32 bitrate=N/A speed=17.2x    frame= 2996 fps=415 q=-0.0 size=N/A time=00:02:04.95 bitrate=N/A speed=17.3x    frame= 3220 fps=416 q=-0.0 size=N/A time=00:02:14.30 bitrate=N/A speed=17.4x    frame= 3429 fps=416 q=-0.0 size=N/A time=00:02:23.01 bitrate=N/A speed=17.3x    frame= 3622 fps=413 q=-0.0 size=N/A time=00:02:31.06 bitrate=N/A speed=17.2x    frame= 3840 fps=414 q=-0.0 size=N/A time=00:02:40.16 bitrate=N/A speed=17.3x    frame= 4037 fps=412 q=-0.0 size=N/A time=00:02:48.37 bitrate=N/A speed=17.2x    frame= 4247 fps=412 q=-0.0 size=N/A time=00:02:57.13 bitrate=N/A speed=17.2x    frame= 4416 fps=408 q=-0.0 size=N/A time=00:03:04.18 bitrate=N/A speed=  17x    frame= 4633 fps=409 q=-0.0 size=N/A time=00:03:13.23 bitrate=N/A speed=  17x    frame= 4861 fps=410 q=-0.0 size=N/A time=00:03:22.74 bitrate=N/A speed=17.1x    frame= 5070 fps=410 q=-0.0 size=N/A time=00:03:31.46 bitrate=N/A speed=17.1x    frame= 5272 fps=409 q=-0.0 size=N/A time=00:03:39.88 bitrate=N/A speed=17.1x    frame= 5492 fps=410 q=-0.0 size=N/A time=00:03:49.06 bitrate=N/A speed=17.1x    frame= 5720 fps=411 q=-0.0 size=N/A time=00:03:58.57 bitrate=N/A speed=17.1x    frame= 5941 fps=412 q=-0.0 size=N/A time=00:04:07.78 bitrate=N/A speed=17.2x    frame= 6163 fps=412 q=-0.0 size=N/A time=00:04:17.04 bitrate=N/A speed=17.2x    frame= 6387 fps=413 q=-0.0 size=N/A time=00:04:26.39 bitrate=N/A speed=17.2x    frame= 6619 fps=414 q=-0.0 size=N/A time=00:04:36.06 bitrate=N/A speed=17.3x    frame= 6789 fps=411 q=-0.0 size=N/A time=00:04:43.15 bitrate=N/A speed=17.2x    frame= 6938 fps=407 q=-0.0 size=N/A time=00:04:49.37 bitrate=N/A speed=  17x    frame= 7104 fps=405 q=-0.0 size=N/A time=00:04:56.29 bitrate=N/A speed=16.9x    frame= 7261 fps=402 q=-0.0 size=N/A time=00:05:02.84 bitrate=N/A speed=16.8x    frame= 7436 fps=400 q=-0.0 size=N/A time=00:05:10.14 bitrate=N/A speed=16.7x    frame= 7611 fps=399 q=-0.0 size=N/A time=00:05:17.44 bitrate=N/A speed=16.6x    frame= 7757 fps=395 q=-0.0 size=N/A time=00:05:23.53 bitrate=N/A speed=16.5x    frame= 7900 fps=393 q=-0.0 size=N/A time=00:05:29.49 bitrate=N/A speed=16.4x    frame= 8055 fps=390 q=-0.0 size=N/A time=00:05:35.96 bitrate=N/A speed=16.3x    frame= 8188 fps=387 q=-0.0 size=N/A time=00:05:41.50 bitrate=N/A speed=16.1x    frame= 8353 fps=385 q=-0.0 size=N/A time=00:05:48.38 bitrate=N/A speed=16.1x    frame= 8554 fps=386 q=-0.0 size=N/A time=00:05:56.77 bitrate=N/A speed=16.1x    frame= 8718 fps=384 q=-0.0 size=N/A time=00:06:03.61 bitrate=N/A speed=  16x    frame= 8921 fps=384 q=-0.0 size=N/A time=00:06:12.08 bitrate=N/A speed=  16x    frame= 9120 fps=384 q=-0.0 size=N/A time=00:06:20.38 bitrate=N/A speed=  16x    frame= 9326 fps=385 q=-0.0 size=N/A time=00:06:28.97 bitrate=N/A speed=  16x    frame= 9544 fps=385 q=-0.0 size=N/A time=00:06:38.06 bitrate=N/A speed=16.1x    frame= 9765 fps=386 q=-0.0 size=N/A time=00:06:47.28 bitrate=N/A speed=16.1x    frame= 9989 fps=387 q=-0.0 size=N/A time=00:06:56.62 bitrate=N/A speed=16.1x    frame=10176 fps=387 q=-0.0 size=N/A time=00:07:04.42 bitrate=N/A speed=16.1x    frame=10379 fps=387 q=-0.0 size=N/A time=00:07:12.89 bitrate=N/A speed=16.1x    frame=10607 fps=388 q=-0.0 size=N/A time=00:07:22.40 bitrate=N/A speed=16.2x    frame=10825 fps=389 q=-0.0 size=N/A time=00:07:31.49 bitrate=N/A speed=16.2x    frame=11047 fps=389 q=-0.0 size=N/A time=00:07:40.75 bitrate=N/A speed=16.2x    frame=11263 fps=390 q=-0.0 size=N/A time=00:07:49.76 bitrate=N/A speed=16.3x    frame=11465 fps=390 q=-0.0 size=N/A time=00:07:58.18 bitrate=N/A speed=16.3x    frame=11645 fps=389 q=-0.0 size=N/A time=00:08:05.69 bitrate=N/A speed=16.2x    frame=11864 fps=390 q=-0.0 size=N/A time=00:08:14.82 bitrate=N/A speed=16.3x    frame=12053 fps=389 q=-0.0 size=N/A time=00:08:22.71 bitrate=N/A speed=16.2x    frame=12280 fps=390 q=-0.0 size=N/A time=00:08:32.17 bitrate=N/A speed=16.3x    frame=12508 fps=391 q=-0.0 size=N/A time=00:08:41.68 bitrate=N/A speed=16.3x    frame=12735 fps=392 q=-0.0 size=N/A time=00:08:51.15 bitrate=N/A speed=16.3x    frame=12966 fps=393 q=-0.0 size=N/A time=00:09:00.79 bitrate=N/A speed=16.4x    frame=13196 fps=394 q=-0.0 size=N/A time=00:09:10.38 bitrate=N/A speed=16.4x    frame=13388 fps=393 q=-0.0 size=N/A time=00:09:18.39 bitrate=N/A speed=16.4x    frame=13558 fps=392 q=-0.0 size=N/A time=00:09:25.48 bitrate=N/A speed=16.4x    frame=13721 fps=391 q=-0.0 size=N/A time=00:09:32.28 bitrate=N/A speed=16.3x    frame=13936 fps=392 q=-0.0 size=N/A time=00:09:41.24 bitrate=N/A speed=16.3x    frame=14129 fps=391 q=-0.0 size=N/A time=00:09:49.29 bitrate=N/A speed=16.3x    frame=14294 fps=390 q=-0.0 size=N/A time=00:09:56.17 bitrate=N/A speed=16.3x    frame=14467 fps=389 q=-0.0 size=N/A time=00:10:03.39 bitrate=N/A speed=16.2x    frame=14636 fps=389 q=-0.0 size=N/A time=00:10:10.44 bitrate=N/A speed=16.2x    frame=14830 fps=389 q=-0.0 size=N/A time=00:10:18.53 bitrate=N/A speed=16.2x    frame=15055 fps=389 q=-0.0 size=N/A time=00:10:27.91 bitrate=N/A speed=16.2x    frame=15235 fps=389 q=-0.0 size=N/A time=00:10:35.42 bitrate=N/A speed=16.2x    frame=15426 fps=388 q=-0.0 size=N/A time=00:10:43.39 bitrate=N/A speed=16.2x    frame=15630 fps=388 q=-0.0 size=N/A time=00:10:51.90 bitrate=N/A speed=16.2x    frame=15822 fps=388 q=-0.0 size=N/A time=00:10:59.90 bitrate=N/A speed=16.2x    frame=16021 fps=388 q=-0.0 size=N/A time=00:11:08.20 bitrate=N/A speed=16.2x    frame=16249 fps=389 q=-0.0 size=N/A time=00:11:17.71 bitrate=N/A speed=16.2x    frame=16459 fps=389 q=-0.0 size=N/A time=00:11:26.47 bitrate=N/A speed=16.2x    frame=16636 fps=389 q=-0.0 size=N/A time=00:11:33.85 bitrate=N/A speed=16.2x    frame=16824 fps=388 q=-0.0 size=N/A time=00:11:41.70 bitrate=N/A speed=16.2x    frame=17015 fps=388 q=-0.0 size=N/A time=00:11:49.66 bitrate=N/A speed=16.2x    frame=17208 fps=388 q=-0.0 size=N/A time=00:11:57.71 bitrate=N/A speed=16.2x    frame=17436 fps=389 q=-0.0 size=N/A time=00:12:07.22 bitrate=N/A speed=16.2x    frame=17640 fps=389 q=-0.0 size=N/A time=00:12:15.73 bitrate=N/A speed=16.2x    frame=17863 fps=389 q=-0.0 size=N/A time=00:12:25.03 bitrate=N/A speed=16.2x    frame=18074 fps=389 q=-0.0 size=N/A time=00:12:33.83 bitrate=N/A speed=16.2x    frame=18296 fps=390 q=-0.0 size=N/A time=00:12:43.09 bitrate=N/A speed=16.3x    frame=18515 fps=390 q=-0.0 size=N/A time=00:12:52.22 bitrate=N/A speed=16.3x    frame=18732 fps=391 q=-0.0 size=N/A time=00:13:01.28 bitrate=N/A speed=16.3x    frame=18933 fps=391 q=-0.0 size=N/A time=00:13:09.66 bitrate=N/A speed=16.3x    frame=19140 fps=391 q=-0.0 size=N/A time=00:13:18.29 bitrate=N/A speed=16.3x    frame=19360 fps=391 q=-0.0 size=N/A time=00:13:27.47 bitrate=N/A speed=16.3x    frame=19584 fps=391 q=-0.0 size=N/A time=00:13:36.81 bitrate=N/A speed=16.3x    frame=19795 fps=392 q=-0.0 size=N/A time=00:13:45.61 bitrate=N/A speed=16.3x    frame=20023 fps=392 q=-0.0 size=N/A time=00:13:55.12 bitrate=N/A speed=16.4x    frame=20239 fps=392 q=-0.0 size=N/A time=00:14:04.13 bitrate=N/A speed=16.4x    frame=20464 fps=393 q=-0.0 size=N/A time=00:14:13.51 bitrate=N/A speed=16.4x    frame=20679 fps=393 q=-0.0 size=N/A time=00:14:22.48 bitrate=N/A speed=16.4x    frame=20833 fps=392 q=-0.0 size=N/A time=00:14:28.90 bitrate=N/A speed=16.4x    frame=21025 fps=392 q=-0.0 size=N/A time=00:14:36.91 bitrate=N/A speed=16.3x    frame=21227 fps=392 q=-0.0 size=N/A time=00:14:45.34 bitrate=N/A speed=16.3x    frame=21434 fps=392 q=-0.0 size=N/A time=00:14:53.97 bitrate=N/A speed=16.3x    frame=21629 fps=392 q=-0.0 size=N/A time=00:15:02.10 bitrate=N/A speed=16.3x    frame=21827 fps=392 q=-0.0 size=N/A time=00:15:10.36 bitrate=N/A speed=16.3x    frame=22039 fps=392 q=-0.0 size=N/A time=00:15:19.20 bitrate=N/A speed=16.3x    frame=22260 fps=392 q=-0.0 size=N/A time=00:15:28.42 bitrate=N/A speed=16.4x    frame=22480 fps=393 q=-0.0 size=N/A time=00:15:37.60 bitrate=N/A speed=16.4x    frame=22700 fps=393 q=-0.0 size=N/A time=00:15:46.77 bitrate=N/A speed=16.4x    frame=22917 fps=393 q=-0.0 size=N/A time=00:15:55.82 bitrate=N/A speed=16.4x    frame=23138 fps=393 q=-0.0 size=N/A time=00:16:05.04 bitrate=N/A speed=16.4x    frame=23351 fps=394 q=-0.0 size=N/A time=00:16:13.93 bitrate=N/A speed=16.4x    frame=23574 fps=394 q=-0.0 size=N/A time=00:16:23.23 bitrate=N/A speed=16.4x    frame=23787 fps=394 q=-0.0 size=N/A time=00:16:32.11 bitrate=N/A speed=16.4x    frame=24008 fps=394 q=-0.0 size=N/A time=00:16:41.33 bitrate=N/A speed=16.4x    frame=24230 fps=395 q=-0.0 size=N/A time=00:16:50.59 bitrate=N/A speed=16.5x    frame=24449 fps=395 q=-0.0 size=N/A time=00:16:59.72 bitrate=N/A speed=16.5x    frame=24671 fps=395 q=-0.0 size=N/A time=00:17:08.98 bitrate=N/A speed=16.5x    frame=24899 fps=396 q=-0.0 size=N/A time=00:17:18.49 bitrate=N/A speed=16.5x    frame=25131 fps=396 q=-0.0 size=N/A time=00:17:28.17 bitrate=N/A speed=16.5x    frame=25350 fps=396 q=-0.0 size=N/A time=00:17:37.30 bitrate=N/A speed=16.5x    frame=25576 fps=397 q=-0.0 size=N/A time=00:17:46.73 bitrate=N/A speed=16.5x    frame=25788 fps=397 q=-0.0 size=N/A time=00:17:55.57 bitrate=N/A speed=16.5x    frame=26013 fps=397 q=-0.0 size=N/A time=00:18:04.95 bitrate=N/A speed=16.6x    frame=26232 fps=397 q=-0.0 size=N/A time=00:18:14.09 bitrate=N/A speed=16.6x    frame=26461 fps=398 q=-0.0 size=N/A time=00:18:23.64 bitrate=N/A speed=16.6x    frame=26695 fps=398 q=-0.0 size=N/A time=00:18:33.40 bitrate=N/A speed=16.6x    frame=26922 fps=398 q=-0.0 size=N/A time=00:18:42.87 bitrate=N/A speed=16.6x    frame=27143 fps=399 q=-0.0 size=N/A time=00:18:52.08 bitrate=N/A speed=16.6x    frame=27347 fps=399 q=-0.0 size=N/A time=00:19:00.59 bitrate=N/A speed=16.6x    frame=27570 fps=399 q=-0.0 size=N/A time=00:19:09.89 bitrate=N/A speed=16.6x    frame=27790 fps=399 q=-0.0 size=N/A time=00:19:19.07 bitrate=N/A speed=16.6x    frame=28009 fps=399 q=-0.0 size=N/A time=00:19:28.20 bitrate=N/A speed=16.7x    frame=28205 fps=399 q=-0.0 size=N/A time=00:19:36.38 bitrate=N/A speed=16.6x    frame=28414 fps=399 q=-0.0 size=N/A time=00:19:45.10 bitrate=N/A speed=16.6x    frame=28619 fps=399 q=-0.0 size=N/A time=00:19:53.65 bitrate=N/A speed=16.6x    frame=28832 fps=399 q=-0.0 size=N/A time=00:20:02.53 bitrate=N/A speed=16.6x    frame=29058 fps=399 q=-0.0 size=N/A time=00:20:11.96 bitrate=N/A speed=16.7x    frame=29265 fps=399 q=-0.0 size=N/A time=00:20:20.59 bitrate=N/A speed=16.7x    frame=29474 fps=400 q=-0.0 size=N/A time=00:20:29.31 bitrate=N/A speed=16.7x    frame=29688 fps=400 q=-0.0 size=N/A time=00:20:38.23 bitrate=N/A speed=16.7x    frame=29889 fps=400 q=-0.0 size=N/A time=00:20:46.62 bitrate=N/A speed=16.7x    frame=30073 fps=399 q=-0.0 size=N/A time=00:20:54.29 bitrate=N/A speed=16.7x    frame=30258 fps=399 q=-0.0 size=N/A time=00:21:02.01 bitrate=N/A speed=16.6x    frame=30435 fps=399 q=-0.0 size=N/A time=00:21:09.39 bitrate=N/A speed=16.6x    frame=30624 fps=398 q=-0.0 size=N/A time=00:21:17.27 bitrate=N/A speed=16.6x    frame=30789 fps=398 q=-0.0 size=N/A time=00:21:24.15 bitrate=N/A speed=16.6x    frame=30995 fps=398 q=-0.0 size=N/A time=00:21:32.74 bitrate=N/A speed=16.6x    frame=31206 fps=398 q=-0.0 size=N/A time=00:21:41.55 bitrate=N/A speed=16.6x    frame=31398 fps=398 q=-0.0 size=N/A time=00:21:49.55 bitrate=N/A speed=16.6x    frame=31590 fps=398 q=-0.0 size=N/A time=00:21:57.56 bitrate=N/A speed=16.6x    frame=31794 fps=398 q=-0.0 size=N/A time=00:22:06.07 bitrate=N/A speed=16.6x    frame=32005 fps=398 q=-0.0 size=N/A time=00:22:14.87 bitrate=N/A speed=16.6x    frame=32226 fps=398 q=-0.0 size=N/A time=00:22:24.09 bitrate=N/A speed=16.6x    frame=32433 fps=398 q=-0.0 size=N/A time=00:22:32.72 bitrate=N/A speed=16.6x    frame=32651 fps=398 q=-0.0 size=N/A time=00:22:41.81 bitrate=N/A speed=16.6x    frame=32877 fps=398 q=-0.0 size=N/A time=00:22:51.24 bitrate=N/A speed=16.6x    frame=33094 fps=398 q=-0.0 size=N/A time=00:23:00.29 bitrate=N/A speed=16.6x    frame=33304 fps=398 q=-0.0 size=N/A time=00:23:09.05 bitrate=N/A speed=16.6x    frame=33485 fps=398 q=-0.0 size=N/A time=00:23:16.60 bitrate=N/A speed=16.6x    frame=33698 fps=398 q=-0.0 size=N/A time=00:23:25.48 bitrate=N/A speed=16.6x    frame=33910 fps=398 q=-0.0 size=N/A time=00:23:34.32 bitrate=N/A speed=16.6x    frame=34104 fps=398 q=-0.0 size=N/A time=00:23:42.42 bitrate=N/A speed=16.6x    frame=34317 fps=398 q=-0.0 size=N/A time=00:23:51.30 bitrate=N/A speed=16.6x    frame=34464 fps=398 q=-0.0 size=N/A time=00:23:57.43 bitrate=N/A speed=16.6x    frame=34644 fps=397 q=-0.0 size=N/A time=00:24:04.94 bitrate=N/A speed=16.6x    frame=34847 fps=397 q=-0.0 size=N/A time=00:24:13.41 bitrate=N/A speed=16.6x    [Parsed_ssim_12 @ 0000020d53920b80] SSIM Y:0.993337 (21.762995) U:0.993799 (22.075538) V:0.993735 (22.030653) All:0.993480 (21.857540)
[out#0/null @ 0000020d3cda7480] video:15063KiB audio:274156KiB subtitle:0KiB other streams:0KiB global headers:0KiB muxing overhead: unknown
frame=35056 fps=398 q=-0.0 Lsize=N/A time=00:24:22.12 bitrate=N/A speed=16.6x    
